<?xml version="1.0" encoding="UTF-8" standalone="no"?>
<svg width="16px" height="33px" viewBox="0 0 16 33" version="1.1" xmlns="http://www.w3.org/2000/svg" xmlns:xlink="http://www.w3.org/1999/xlink">
    <!-- Generator: Sketch 3.8.2 (29753) - http://www.bohemiancoding.com/sketch -->
    <title>Shape</title>
    <desc>Created with Sketch.</desc>
    <defs></defs>
    <g id="Page-1" stroke="none" stroke-width="1" fill="none" fill-rule="evenodd">
        <g id="Group-3" transform="translate(-114.000000, -14.000000)" fill="#FFFFFF">
            <path d="M118.948922,15.6576336 C120.203568,14.4629638 121.988154,14.0594563 123.671609,14.0091643 C125.452056,13.9931551 127.2318,14.0028387 129.012246,14.0035415 C129.019275,15.8817611 129.0199,17.7606835 129.011544,19.638825 C127.860918,19.6367946 126.709512,19.6416364 125.558887,19.6367946 C124.829262,19.5913443 124.080036,20.1444004 123.947434,20.8676996 C123.929941,22.1244535 123.941108,23.3819102 123.941811,24.6387422 C125.629405,24.6456925 127.316999,24.6366337 129.004515,24.6429592 C128.880972,26.4610471 128.655439,28.270857 128.390859,30.0736385 C126.900216,30.0876172 125.408714,30.0722329 123.918149,30.0813698 C123.904873,35.4436394 123.925099,40.805909 123.907684,46.1681787 C121.693586,46.1772375 119.47816,46.1639617 117.26414,46.1744261 C117.222204,40.8114537 117.267576,35.4457479 117.241102,30.0820726 C116.160917,30.0708272 115.080107,30.0898038 114,30.0730138 C114.004139,28.2702322 114.001406,26.4675288 114.00203,24.665372 C115.081435,24.6521742 116.16162,24.6681833 117.241102,24.6577189 C117.273901,22.9051512 117.208225,21.1505532 117.275307,19.3994694 C117.383544,18.0126903 117.912079,16.6155248 118.948922,15.6576336 L118.948922,15.6576336 Z" id="Shape"></path>
        </g>
    </g>
</svg>