<?xml version="1.0" encoding="UTF-8" standalone="no"?>
<svg width="60px" height="71px" viewBox="0 0 60 71" version="1.1" xmlns="http://www.w3.org/2000/svg" xmlns:xlink="http://www.w3.org/1999/xlink">
    <!-- Generator: Sketch 3.8.2 (29753) - http://www.bohemiancoding.com/sketch -->
    <title>Group 2 Copy</title>
    <desc>Created with Sketch.</desc>
    <defs></defs>
    <g id="Page-1" stroke="none" stroke-width="1" fill="none" fill-rule="evenodd">
        <g id="Group-2-Copy">
            <rect id="Rectangle-1-Copy" fill="#2D8BB9" x="0" y="0" width="59.814538" height="70.8350031"></rect>
            <path d="M47.25,46.0462 C44.0910168,50.0921761 39.700096,52.4839022 34.077106,53.2214499 C34.9405614,55.8766217 36.0725134,57.7942171 37.4729959,58.9742934 C38.8734785,60.1543698 35.0090116,64.3636421 32.9556726,62.5619184 C30.9023335,60.7601946 29.2228326,57.7520987 27.9171196,53.5375402 C23.7472618,53.3268123 20.1513398,52.2679204 17.1292459,50.3608327 C14.107152,48.453745 11.8011289,45.798613 10.2111073,42.395357 C8.6210858,38.9921011 7.82608696,35.0462799 7.82608696,30.5577752 C7.82608696,23.4351714 9.77409737,17.8667696 13.6701766,13.8524026 C17.5662559,9.83803571 22.9890957,7.83088235 29.9388587,7.83088235 C34.4667346,7.83088235 38.3943448,8.73173071 41.7218071,10.5334544 C45.0492694,12.3351782 47.5922127,14.9534333 49.3507133,18.3882985 C51.109214,21.8231636 51.9884511,25.8796153 51.9884511,30.5577752 C51.9884511,30.5577752 50.4089832,42.0002239 47.25,46.0462 Z M45.8284647,30.5577752 C45.8284647,25.0156308 44.4437978,20.6641645 41.6744226,17.5032456 C38.9050473,14.3423268 34.9932318,12.7618911 29.9388587,12.7618911 C24.8423658,12.7618911 20.9042259,14.3212543 18.1243207,17.4400276 C15.3444154,20.5588008 13.9544837,24.9313396 13.9544837,30.5577752 C13.9544837,36.1420651 15.3602101,40.5725532 18.1717052,43.8493724 C20.9832002,47.1261916 24.8844859,48.7645766 29.8756793,48.7645766 C35.014292,48.7645766 38.9576969,47.1788728 41.7060122,44.0074176 C44.4543276,40.8359623 45.8284647,36.352793 45.8284647,30.5577752 L45.8284647,30.5577752 Z" id="Q" fill="#FFFFFF"></path>
        </g>
    </g>
</svg>